<svg width="245" height="34" viewBox="0 0 245 34" fill="none" xmlns="http://www.w3.org/2000/svg">
<path d="M37.2128 23.0294V20.1635H39.4858V8.60118H37.2128V5.7353H46.107C47.1611 5.7353 48.0752 5.91648 48.8493 6.27883C49.6399 6.62471 50.2493 7.12707 50.6775 7.78589C51.1222 8.42824 51.3446 9.20236 51.3446 10.1082V10.3553C51.3446 11.1459 51.1964 11.7965 50.8999 12.3071C50.6034 12.8012 50.2493 13.1882 49.8375 13.4682C49.4422 13.7318 49.0634 13.9212 48.7011 14.0365V14.4812C49.0634 14.58 49.4587 14.7694 49.887 15.0494C50.3152 15.3129 50.6775 15.7 50.974 16.2106C51.287 16.7212 51.4434 17.3882 51.4434 18.2118V18.4588C51.4434 19.4141 51.2211 20.2377 50.7764 20.9294C50.3317 21.6047 49.714 22.1235 48.9234 22.4859C48.1493 22.8482 47.2434 23.0294 46.2058 23.0294H37.2128ZM42.747 20.0647H45.8105C46.5187 20.0647 47.087 19.8918 47.5152 19.5459C47.9599 19.2 48.1822 18.7059 48.1822 18.0635V17.8165C48.1822 17.1741 47.9681 16.68 47.5399 16.3341C47.1117 15.9882 46.5352 15.8153 45.8105 15.8153H42.747V20.0647ZM42.747 12.8506H45.7611C46.4364 12.8506 46.9881 12.6777 47.4164 12.3318C47.8611 11.9859 48.0834 11.5082 48.0834 10.8988V10.6518C48.0834 10.0259 47.8693 9.54824 47.4411 9.21883C47.0128 8.87295 46.4528 8.70001 45.7611 8.70001H42.747V12.8506ZM60.0426 23.3753C58.8238 23.3753 57.745 23.12 56.8061 22.6094C55.8838 22.0824 55.1591 21.3494 54.632 20.4106C54.1214 19.4553 53.8661 18.3353 53.8661 17.0506V16.7541C53.8661 15.4694 54.1214 14.3577 54.632 13.4188C55.1426 12.4635 55.8591 11.7306 56.7814 11.22C57.7038 10.6929 58.7744 10.4294 59.9932 10.4294C61.1956 10.4294 62.2414 10.7012 63.1309 11.2447C64.0203 11.7718 64.712 12.5129 65.2061 13.4682C65.7003 14.4071 65.9473 15.5024 65.9473 16.7541V17.8165H57.0285C57.0614 18.6565 57.3744 19.34 57.9673 19.8671C58.5603 20.3941 59.285 20.6577 60.1414 20.6577C61.0144 20.6577 61.6567 20.4682 62.0685 20.0894C62.4803 19.7106 62.7932 19.2906 63.0073 18.8294L65.552 20.1635C65.3214 20.5918 64.9838 21.0612 64.5391 21.5718C64.1109 22.0659 63.5344 22.4941 62.8097 22.8565C62.085 23.2024 61.1626 23.3753 60.0426 23.3753ZM57.0532 15.4941H62.785C62.7191 14.7859 62.4309 14.2177 61.9203 13.7894C61.4261 13.3612 60.7756 13.1471 59.9685 13.1471C59.1285 13.1471 58.4614 13.3612 57.9673 13.7894C57.4732 14.2177 57.1685 14.7859 57.0532 15.4941ZM73.2732 23.0294C72.4661 23.0294 71.8073 22.7824 71.2967 22.2882C70.8026 21.7777 70.5555 21.1024 70.5555 20.2624V13.3447H67.492V10.7753H70.5555V6.9706H73.6685V10.7753H77.0285V13.3447H73.6685V19.7188C73.6685 20.2129 73.8991 20.46 74.3603 20.46H76.732V23.0294H73.2732ZM83.8981 23.3753C83.0251 23.3753 82.2428 23.2271 81.551 22.9306C80.8592 22.6177 80.3075 22.1729 79.8957 21.5965C79.5004 21.0035 79.3028 20.2871 79.3028 19.4471C79.3028 18.6071 79.5004 17.9071 79.8957 17.3471C80.3075 16.7706 80.8675 16.3424 81.5757 16.0624C82.3004 15.7659 83.124 15.6177 84.0463 15.6177H87.4063V14.9259C87.4063 14.3494 87.2251 13.88 86.8628 13.5177C86.5004 13.1388 85.924 12.9494 85.1334 12.9494C84.3592 12.9494 83.7828 13.1306 83.404 13.4929C83.0251 13.8388 82.7781 14.2918 82.6628 14.8518L79.7969 13.8882C79.9945 13.2624 80.3075 12.6941 80.7357 12.1835C81.1804 11.6565 81.7651 11.2365 82.4898 10.9235C83.231 10.5941 84.1287 10.4294 85.1828 10.4294C86.7969 10.4294 88.0734 10.8329 89.0122 11.64C89.951 12.4471 90.4204 13.6165 90.4204 15.1482V19.7188C90.4204 20.2129 90.651 20.46 91.1122 20.46H92.1004V23.0294H90.0251C89.4157 23.0294 88.9134 22.8812 88.5181 22.5847C88.1228 22.2882 87.9251 21.8929 87.9251 21.3988V21.3741H87.4557C87.3898 21.5718 87.2416 21.8353 87.011 22.1647C86.7804 22.4777 86.4181 22.7577 85.924 23.0047C85.4298 23.2518 84.7545 23.3753 83.8981 23.3753ZM84.4416 20.8553C85.3145 20.8553 86.0228 20.6165 86.5663 20.1388C87.1263 19.6447 87.4063 18.9941 87.4063 18.1871V17.94H84.2687C83.6922 17.94 83.2392 18.0635 82.9098 18.3106C82.5804 18.5577 82.4157 18.9035 82.4157 19.3482C82.4157 19.7929 82.5887 20.1553 82.9345 20.4353C83.2804 20.7153 83.7828 20.8553 84.4416 20.8553Z" fill="white"/>
<line x1="104.485" y1="5.66174" x2="104.485" y2="24.1912" stroke="white" stroke-width="1.02941" stroke-linecap="round"/>
<path d="M116.647 21.2353V8.2647H124.651V10.0806H118.648V13.8235H124.17V15.6394H118.648V21.2353H116.647ZM130.845 21.4947C129.93 21.4947 129.115 21.3094 128.399 20.9388C127.695 20.5559 127.139 20.0123 126.731 19.3082C126.323 18.6041 126.12 17.7703 126.12 16.8068V16.5288C126.12 15.5653 126.323 14.7376 126.731 14.0459C127.139 13.3418 127.695 12.7982 128.399 12.4153C129.115 12.0324 129.93 11.8409 130.845 11.8409C131.759 11.8409 132.574 12.0324 133.29 12.4153C134.007 12.7982 134.569 13.3418 134.977 14.0459C135.384 14.7376 135.588 15.5653 135.588 16.5288V16.8068C135.588 17.7703 135.384 18.6041 134.977 19.3082C134.569 20.0123 134.007 20.5559 133.29 20.9388C132.574 21.3094 131.759 21.4947 130.845 21.4947ZM130.845 19.79C131.685 19.79 132.364 19.5244 132.883 18.9932C133.414 18.4497 133.68 17.7023 133.68 16.7512V16.5844C133.68 15.6332 133.42 14.8921 132.901 14.3609C132.382 13.8173 131.697 13.5456 130.845 13.5456C130.017 13.5456 129.337 13.8173 128.806 14.3609C128.287 14.8921 128.028 15.6332 128.028 16.5844V16.7512C128.028 17.7023 128.287 18.4497 128.806 18.9932C129.337 19.5244 130.017 19.79 130.845 19.79ZM137.964 21.2353V8.2647H139.873V21.2353H137.964ZM142.705 21.2353V8.2647H144.614V15.6579H144.91L148.505 12.1003H151.043L146.429 16.5288L151.192 21.2353H148.672L144.91 17.4368H144.614V21.2353H142.705ZM156.574 21.4947C155.647 21.4947 154.838 21.3032 154.146 20.9203C153.454 20.525 152.911 19.9753 152.516 19.2712C152.133 18.5547 151.941 17.7271 151.941 16.7882V16.5659C151.941 15.6147 152.133 14.7871 152.516 14.0829C152.899 13.3665 153.43 12.8168 154.109 12.4338C154.801 12.0385 155.598 11.8409 156.499 11.8409C157.377 11.8409 158.142 12.0385 158.797 12.4338C159.464 12.8168 159.983 13.3541 160.354 14.0459C160.724 14.7376 160.909 15.5468 160.909 16.4732V17.1959H153.887C153.912 17.9988 154.177 18.6412 154.684 19.1229C155.202 19.5923 155.845 19.8271 156.611 19.8271C157.327 19.8271 157.864 19.6665 158.223 19.3453C158.593 19.0241 158.877 18.6535 159.075 18.2335L160.65 19.0488C160.477 19.3947 160.224 19.7591 159.89 20.1421C159.569 20.525 159.143 20.8462 158.612 21.1056C158.081 21.365 157.401 21.4947 156.574 21.4947ZM153.905 15.7321H158.964C158.914 15.0403 158.667 14.5029 158.223 14.12C157.778 13.7247 157.197 13.5271 156.481 13.5271C155.764 13.5271 155.178 13.7247 154.721 14.12C154.276 14.5029 154.004 15.0403 153.905 15.7321ZM166.95 21.4947C165.789 21.4947 164.825 21.2353 164.059 20.7165C163.293 20.1976 162.824 19.4132 162.651 18.3632L164.43 17.9371C164.529 18.4435 164.695 18.845 164.93 19.1415C165.165 19.4379 165.455 19.6479 165.801 19.7715C166.159 19.895 166.542 19.9568 166.95 19.9568C167.555 19.9568 168.018 19.8394 168.339 19.6047C168.673 19.37 168.84 19.0673 168.84 18.6968C168.84 18.3262 168.685 18.0544 168.377 17.8815C168.068 17.7085 167.611 17.5665 167.005 17.4553L166.375 17.3441C165.758 17.2329 165.196 17.0723 164.689 16.8623C164.183 16.6523 163.781 16.3621 163.485 15.9915C163.188 15.6209 163.04 15.1453 163.04 14.5647C163.04 13.7 163.361 13.0329 164.004 12.5635C164.646 12.0818 165.498 11.8409 166.561 11.8409C167.586 11.8409 168.426 12.0756 169.081 12.545C169.748 13.0021 170.18 13.6259 170.378 14.4165L168.599 14.9168C168.488 14.3609 168.253 13.9718 167.895 13.7494C167.537 13.5147 167.092 13.3974 166.561 13.3974C166.042 13.3974 165.634 13.4962 165.338 13.6938C165.041 13.8791 164.893 14.1447 164.893 14.4906C164.893 14.8612 165.035 15.1329 165.319 15.3059C165.616 15.4788 166.011 15.6085 166.505 15.695L167.154 15.8062C167.808 15.9173 168.407 16.0718 168.951 16.2694C169.494 16.4671 169.921 16.7512 170.229 17.1218C170.551 17.4923 170.711 17.9865 170.711 18.6041C170.711 19.5182 170.372 20.2285 169.692 20.735C169.013 21.2415 168.099 21.4947 166.95 21.4947ZM176.171 21.2353C175.615 21.2353 175.17 21.0685 174.837 20.735C174.516 20.4015 174.355 19.9568 174.355 19.4009V13.7123H171.835V12.1003H174.355V9.08H176.264V12.1003H178.987V13.7123H176.264V19.0673C176.264 19.4379 176.436 19.6232 176.782 19.6232H178.691V21.2353H176.171ZM185.092 21.4947C184.165 21.4947 183.356 21.3032 182.664 20.9203C181.972 20.525 181.429 19.9753 181.034 19.2712C180.651 18.5547 180.459 17.7271 180.459 16.7882V16.5659C180.459 15.6147 180.651 14.7871 181.034 14.0829C181.417 13.3665 181.948 12.8168 182.627 12.4338C183.319 12.0385 184.116 11.8409 185.017 11.8409C185.894 11.8409 186.66 12.0385 187.315 12.4338C187.982 12.8168 188.501 13.3541 188.872 14.0459C189.242 14.7376 189.427 15.5468 189.427 16.4732V17.1959H182.405C182.429 17.9988 182.695 18.6412 183.202 19.1229C183.72 19.5923 184.363 19.8271 185.129 19.8271C185.845 19.8271 186.382 19.6665 186.741 19.3453C187.111 19.0241 187.395 18.6535 187.593 18.2335L189.168 19.0488C188.995 19.3947 188.742 19.7591 188.408 20.1421C188.087 20.525 187.661 20.8462 187.13 21.1056C186.599 21.365 185.919 21.4947 185.092 21.4947ZM182.423 15.7321H187.482C187.432 15.0403 187.185 14.5029 186.741 14.12C186.296 13.7247 185.715 13.5271 184.999 13.5271C184.282 13.5271 183.696 13.7247 183.239 14.12C182.794 14.5029 182.522 15.0403 182.423 15.7321ZM191.725 21.2353V12.1003H193.596V13.175H193.893C194.066 12.8538 194.344 12.5697 194.727 12.3226C195.109 12.0756 195.628 11.9521 196.283 11.9521C196.962 11.9521 197.506 12.0941 197.914 12.3782C198.334 12.65 198.649 13.0021 198.859 13.4344H199.155C199.365 13.0144 199.668 12.6624 200.063 12.3782C200.471 12.0941 201.045 11.9521 201.786 11.9521C202.379 11.9521 202.904 12.0756 203.361 12.3226C203.818 12.5574 204.183 12.9156 204.454 13.3974C204.726 13.8668 204.862 14.4535 204.862 15.1576V21.2353H202.954V15.3059C202.954 14.75 202.799 14.3238 202.49 14.0273C202.194 13.7185 201.768 13.5641 201.212 13.5641C200.619 13.5641 200.143 13.7556 199.785 14.1385C199.427 14.5215 199.248 15.0712 199.248 15.7876V21.2353H197.339V15.3059C197.339 14.75 197.185 14.3238 196.876 14.0273C196.579 13.7185 196.153 13.5641 195.597 13.5641C195.004 13.5641 194.529 13.7556 194.171 14.1385C193.812 14.5215 193.633 15.0712 193.633 15.7876V21.2353H191.725ZM207.612 21.2353V12.1003H209.484V13.175H209.78C209.953 12.8538 210.231 12.5697 210.614 12.3226C210.997 12.0756 211.516 11.9521 212.171 11.9521C212.85 11.9521 213.393 12.0941 213.801 12.3782C214.221 12.65 214.536 13.0021 214.746 13.4344H215.043C215.253 13.0144 215.555 12.6624 215.951 12.3782C216.358 12.0941 216.933 11.9521 217.674 11.9521C218.267 11.9521 218.792 12.0756 219.249 12.3226C219.706 12.5574 220.07 12.9156 220.342 13.3974C220.614 13.8668 220.75 14.4535 220.75 15.1576V21.2353H218.841V15.3059C218.841 14.75 218.687 14.3238 218.378 14.0273C218.081 13.7185 217.655 13.5641 217.099 13.5641C216.506 13.5641 216.031 13.7556 215.673 14.1385C215.314 14.5215 215.135 15.0712 215.135 15.7876V21.2353H213.227V15.3059C213.227 14.75 213.072 14.3238 212.763 14.0273C212.467 13.7185 212.041 13.5641 211.485 13.5641C210.892 13.5641 210.416 13.7556 210.058 14.1385C209.7 14.5215 209.521 15.0712 209.521 15.7876V21.2353H207.612ZM227.687 21.4947C226.761 21.4947 225.952 21.3032 225.26 20.9203C224.568 20.525 224.025 19.9753 223.63 19.2712C223.247 18.5547 223.055 17.7271 223.055 16.7882V16.5659C223.055 15.6147 223.247 14.7871 223.63 14.0829C224.012 13.3665 224.544 12.8168 225.223 12.4338C225.915 12.0385 226.712 11.8409 227.613 11.8409C228.49 11.8409 229.256 12.0385 229.911 12.4338C230.578 12.8168 231.097 13.3541 231.467 14.0459C231.838 14.7376 232.023 15.5468 232.023 16.4732V17.1959H225.001C225.025 17.9988 225.291 18.6412 225.797 19.1229C226.316 19.5923 226.959 19.8271 227.725 19.8271C228.441 19.8271 228.978 19.6665 229.337 19.3453C229.707 19.0241 229.991 18.6535 230.189 18.2335L231.764 19.0488C231.591 19.3947 231.338 19.7591 231.004 20.1421C230.683 20.525 230.257 20.8462 229.726 21.1056C229.195 21.365 228.515 21.4947 227.687 21.4947ZM225.019 15.7321H230.078C230.028 15.0403 229.781 14.5029 229.337 14.12C228.892 13.7247 228.311 13.5271 227.595 13.5271C226.878 13.5271 226.292 13.7247 225.835 14.12C225.39 14.5029 225.118 15.0403 225.019 15.7321ZM234.321 21.2353V12.1003H236.192V13.4715H236.489C236.662 13.1009 236.97 12.755 237.415 12.4338C237.86 12.1126 238.521 11.9521 239.398 11.9521C240.09 11.9521 240.701 12.1065 241.232 12.4153C241.776 12.7241 242.202 13.1626 242.511 13.7309C242.82 14.2868 242.974 14.96 242.974 15.7506V21.2353H241.065V15.8988C241.065 15.1082 240.868 14.5276 240.472 14.1571C240.077 13.7741 239.534 13.5826 238.842 13.5826C238.051 13.5826 237.415 13.8421 236.933 14.3609C236.464 14.8797 236.229 15.6332 236.229 16.6215V21.2353H234.321Z" fill="white"/>
<path d="M13.0805 0H0V12.1276C0 22.8905 11.7347 32.2887 13.0805 33.1223C14.4263 32.2887 26.161 22.8905 26.161 12.1276V0H13.0805ZM13.1335 20.1275C11.8968 20.1275 10.6878 19.7555 9.65951 19.0587C8.63126 18.3618 7.82994 17.3713 7.35695 16.2125C6.88396 15.0537 6.76054 13.7788 7.0023 12.5488C7.24407 11.3189 7.84016 10.1894 8.71516 9.30305C9.59016 8.41674 10.7048 7.8135 11.9179 7.56965C13.1311 7.3258 14.3884 7.4523 15.5306 7.93315C16.6729 8.414 17.6488 9.22758 18.335 10.271C19.0212 11.3144 19.3867 12.5407 19.3854 13.7948C19.3836 15.475 18.7242 17.0857 17.5519 18.2731C16.3797 19.4605 14.7905 20.1275 13.1335 20.1275Z" fill="white"/>
</svg>
